<svg xmlns="http://www.w3.org/2000/svg" viewBox="0 0 160 160">
	<defs>
	<style>.cls-1{fill:#fff;}</style>
	</defs>

	<g id="svg1">
		<polygon class="cls-1" points="17.07 152.56 34.4 152.56 29.04 131.34 17.07 152.56"/>
		<polygon class="cls-1" points="121.69 152.56 125.08 152.56 123.09 149.85 121.69 152.56"/>
		<polygon class="cls-1" points="106.72 127.6 103.66 152.56 112.52 152.56 117.71 142.53 106.72 127.6"/>
		<path class="cls-1" d="M26.14,119.89,18.7,90.42l7.9-2,5.34,21.17,3.85-6.82,7.1,4-8,14.28,6.65,26.36,20-23.88,6.24,5.24L47.82,152.56H73.36l-5-25.44L62.23,122l.21-.69a38.55,38.55,0,0,1,3.35-7.25L55.19,60.27l8-1.58,9.21,46.8c3-2.53,6.35-3.44,9.62-.4,7.36,5.44.16,13.21-6.15,18l5.8,29.43h13.8L99.68,118l-11-15L95.2,98.2l5.93,8.06,2.79-22.79,8.08,1-3.84,31.36,13.72,18.64,4-7.77,7.24,3.74-5.88,11.35,7.93,10.78h6.39a11,11,0,0,0,11-11V11A11,11,0,0,0,141.61,0H11A11,11,0,0,0,0,11V141.54c0,.25,0,.5,0,.74s0,.25,0,.37v.06c0,.34.09.69.16,1v.05a10.88,10.88,0,0,0,1.1,3,9.16,9.16,0,0,0,.55.91,11.22,11.22,0,0,0,1.35,1.64c.23.22.47.44.71.64l.29.23c.2.16.41.32.63.47a10,10,0,0,0,1.39.8,10.34,10.34,0,0,0,1.43.56l.13.05.16,0Zm115.7-15.7c12.77,5.65-6.32,24-7.89,24.8l-7.7-3.94.06-.72C126.14,123.1,130.78,97.73,141.84,104.19ZM111,56.83c14,.84,2.4,24.71,1.23,26l-8.58-1-.2-.7C102.9,80,98.41,54.64,111,56.83ZM75.53,78.77c10.72-9,18.71,16.33,18.74,18.07L87.33,102l-.62-.37C85.53,101.22,64.84,85.84,75.53,78.77Zm-21.87-46c13.51-3.53,10,22.73,9.26,24.33l-8.47,1.7-.41-.6C53.15,57.31,41,34.58,53.66,32.74Zm-17.38,67.7C36.16,99.2,41.7,74,52.53,80.87c12.56,6.1-7.2,23.76-8.79,24.5l-7.54-4.21ZM15.72,63C29,58.78,26.88,85.16,26.25,86.82L17.88,89l-.43-.58C16.51,87.58,3.16,65.53,15.72,63Z"/>
	</g>
</svg>